<svg width="459" height="423" viewBox="0 0 459 423" fill="none" xmlns="http://www.w3.org/2000/svg">
<path fill-rule="evenodd" clip-rule="evenodd" d="M263.473 188.259C288.078 188.234 309.925 194.412 330.665 208.056C320.973 216.718 310.232 221.495 299.07 225.37C288.061 229.196 276.788 232.001 263.931 231.377C274.634 248.8 279.917 266.908 281.361 286.128C281.702 290.582 281.348 295.085 281.305 300.49C268.927 296.275 259.406 289.329 250.387 281.598C241.456 273.939 233.639 265.298 227.383 254.454C215.29 275.975 198.924 292.127 177.293 303.052C171.83 288.744 176.797 259.392 188.663 234.336C164.492 234.177 142.173 228.326 121.225 214.14C141.306 198.998 163.035 191.926 187.659 190.609C175.648 169.386 169.311 147.121 170.902 122.895C185.507 124.966 209.363 144.831 224.853 167.715C237.031 146.656 253.138 130.023 276.019 119.013C279.022 144.029 274.462 166.495 263.473 188.259ZM182.45 291.905C184.109 291.1 185.126 290.779 185.952 290.197C196.992 282.476 206.678 273.335 214.593 262.411C219.327 255.883 223.027 248.697 224.132 240.66C224.816 235.635 224.694 230.287 223.774 225.288C222.75 219.773 220.586 218.746 215.432 220.585C211.849 221.859 208.28 223.675 205.279 226.005C198.852 230.947 194.294 237.545 191.038 244.948C184.951 258.772 182.278 273.368 182.015 288.453C181.979 289.286 182.205 290.121 182.45 291.905ZM317.25 209.449C317.156 208.852 317.074 208.248 316.974 207.64C299.43 199.469 281.385 193.31 261.567 195.763C256.911 196.328 252.172 197.651 247.981 199.671C244.235 201.499 241.067 204.653 237.89 207.477C235.785 209.338 235.794 211.891 237.953 213.717C241.048 216.329 244.189 219.15 247.794 220.883C255.786 224.73 264.448 225.346 273.148 224.495C285.297 223.331 296.732 219.488 307.759 214.454C311.024 212.974 314.094 211.13 317.25 209.449ZM273.903 288.914C274.18 288.209 274.478 287.802 274.45 287.433C273.064 268.378 268.812 250.202 257.206 234.487C252.1 227.571 245.766 222.027 237.113 219.97C231.525 218.623 230.239 219.444 228.867 225.012C226.895 232.95 228.547 240.593 231.931 247.743C240.691 266.257 255.407 279.001 272.849 288.945C273.003 289.015 273.256 288.933 273.903 288.914ZM135.172 213.395C135.529 214.12 135.622 214.643 135.908 214.831C137.196 215.638 138.501 216.435 139.862 217.048C151.017 222.09 162.642 225.428 174.747 226.961C183.676 228.082 192.484 227.358 200.967 224.29C205.896 222.508 210.402 219.952 213.744 215.746C216.454 212.354 216.438 211.196 213.535 207.885C209.836 203.652 204.969 201.312 199.701 199.776C192.744 197.732 185.634 197.196 178.478 198.042C164.585 199.669 151.554 204.129 139.213 210.626C137.749 211.386 136.479 212.487 135.172 213.395ZM269.124 130.151C252.599 142.071 238.229 154.548 230.503 173.085C228.07 178.926 226.512 185.069 227.229 191.458C228.579 203.497 231.591 205.252 242.144 199.676C250.903 195.046 256.505 187.293 260.627 178.554C267.087 164.843 269.644 150.155 270.136 135.07C270.184 133.776 269.625 132.446 269.124 130.151ZM177.148 133.374C178.063 139.699 178.588 145.476 179.755 151.126C182.476 164.36 186.436 177.152 194.916 188.049C200.062 194.659 206.077 200.176 214.425 202.376C220.513 203.995 222.133 202.969 223.436 196.759C225.203 188.307 223.125 180.369 219.347 172.903C210.538 155.453 196.196 143.498 179.826 133.66C179.503 133.472 179.013 133.565 177.148 133.374ZM229.658 209.149C227.189 209.083 225.47 208.526 224.755 209.145C223.961 209.804 224.088 211.563 223.818 212.845C224.93 213.076 226.385 213.84 227.088 213.408C228.035 212.818 228.427 211.312 229.658 209.149Z" fill="#DAD8CF"/>
<path fill-rule="evenodd" clip-rule="evenodd" d="M58.5497 120.902C66.7225 118.277 74.9639 117.352 83.2782 116.917C94.2806 116.347 105.18 117.391 115.883 120.061C141.119 126.374 157.421 142.675 166.525 166.673C168.405 171.641 169.64 176.85 171.115 181.793C141.736 196.112 107.387 189.666 85.7311 166.501C74.2266 154.189 65.2028 140.402 59.5675 124.48C59.2135 123.474 58.9826 122.43 58.5497 120.902ZM69.7096 127.242C73.993 137.264 79.3132 145.603 85.495 153.419C103.456 176.084 126.265 185.105 154.566 178.47C156.534 178.001 158.441 177.303 160.704 176.622C152.919 150.945 137.954 133.807 111.963 128.011C106.521 126.798 100.947 126.038 95.3859 125.61C87.0815 124.987 78.7596 125.064 69.7096 127.242Z" fill="#DAD8CF"/>
<path fill-rule="evenodd" clip-rule="evenodd" d="M224.364 149.039C200.341 131.848 186.508 103.248 193.022 74.0759C197.054 56.0016 204.993 39.7449 216.563 25.2541C217.509 24.0638 218.562 22.9632 219.619 21.868C219.896 21.5788 220.359 21.4576 221.443 20.8797C224.945 24.9126 228.873 28.8844 232.15 33.3153C240.166 44.1644 246.36 56.0158 250.349 68.9638C256.325 88.3679 254.415 107.006 244.4 124.8C239.252 133.953 232.682 141.934 224.364 149.039ZM223.794 137.623C240.951 119.495 248.962 99.4626 243.089 75.314C240.401 64.2881 235.654 54.0844 229.427 44.6277C227.011 40.9427 224.828 36.9812 220.907 33.6138C219.153 36.1098 217.738 37.9815 216.471 39.9478C210.31 49.5166 205.759 59.8094 202.755 70.7749C195.501 97.2411 203.903 118.758 223.794 137.623Z" fill="#DAD8CF"/>
<path fill-rule="evenodd" clip-rule="evenodd" d="M173.03 243.834C168.827 269.385 158.279 290.432 135.141 303.078C120.797 310.911 104.937 313.339 88.7547 313.471C82.7186 313.52 76.6679 312.774 70.6309 312.242C68.5169 312.061 66.4544 311.408 64.0171 310.882C65.5285 302.416 68.8126 294.915 72.5835 287.651C79.4082 274.465 87.9153 262.567 99.62 253.216C113.245 242.332 128.951 237.906 146.219 238.574C155.328 238.928 164.209 240.562 173.03 243.834ZM162.872 249.83C141.947 244.94 122.757 246.378 105.705 259.466C94.1776 268.299 86.0256 279.979 79.5443 292.879C77.8397 296.281 76.4693 299.864 74.8836 303.483C76.2163 303.974 76.7845 304.295 77.3766 304.377C78.8825 304.583 80.3878 304.751 81.8963 304.829C94.5323 305.479 106.926 303.962 119.055 300.388C128.55 297.571 136.955 292.825 144.018 285.874C154 276.048 159.771 264.031 162.872 249.83Z" fill="#DAD8CF"/>
<path fill-rule="evenodd" clip-rule="evenodd" d="M279.16 178.645C282.62 147.4 301.915 119.723 335.403 112.217C349.902 108.967 364.412 107.912 379.151 109.878C381.89 110.239 384.593 110.831 388.08 111.446C386.515 116.098 385.299 120.186 383.778 124.15C378.102 138.844 369.725 151.831 358.734 163.107C346.095 176.096 330.631 182.759 312.596 183.654C301.231 184.202 290.208 182.383 279.16 178.645ZM376.666 118.377C374.063 118.044 371.995 117.665 369.91 117.549C359.274 116.972 348.802 118.02 338.43 120.375C312.455 126.28 296.992 142.859 289.949 168.051C289.57 169.385 289.613 170.861 289.417 172.492C299.163 174.896 308.529 175.718 318.076 174.406C331.864 172.538 343.575 166.524 353.105 156.519C363.426 145.67 371.586 133.39 376.666 118.377Z" fill="#DAD8CF"/>
<path fill-rule="evenodd" clip-rule="evenodd" d="M280.51 241.95C306.361 228.084 340.729 232.463 362.049 251.898C375.249 263.94 384.91 278.506 391.513 295.083C392.213 296.864 392.632 298.745 393.398 301.3C391.173 301.949 389.208 302.658 387.178 303.091C369.927 306.744 352.691 306.81 335.621 302.806C310.182 296.844 293.925 280.694 284.981 256.82C283.18 252.049 282.012 247.022 280.51 241.95ZM290.994 246.897C298.091 271.004 311.8 287.583 336.022 294.014C349.093 297.48 362.494 298.054 375.993 296.423C377.831 296.211 379.625 295.577 382.043 294.986C378.389 286.014 373.685 278.415 368.182 271.337C359.357 260.02 349.147 250.356 335.004 245.763C320.517 241.06 306.148 241.823 290.994 246.897Z" fill="#DAD8CF"/>
<path fill-rule="evenodd" clip-rule="evenodd" d="M230.669 401.397C226.706 396.792 222.934 392.95 219.768 388.662C211.603 377.643 205.243 365.633 201.27 352.48C192.826 324.495 200.702 300.728 219.655 279.924C221.237 278.188 222.984 276.602 224.723 275.014C225.327 274.457 226.126 274.121 227.186 273.47C237.59 281.578 246.074 291.171 251.962 302.939C260.406 319.792 261.481 337.194 256.251 355.12C252.059 369.532 245.593 382.752 236.459 394.606C234.792 396.765 232.926 398.765 230.669 401.397ZM230.273 388.355C232.159 385.802 233.627 384.048 234.864 382.146C241.205 372.313 245.692 361.674 248.661 350.346C252.417 336.06 251.468 322.121 245.182 308.657C240.956 299.615 235.156 291.725 226.937 284.961C210.289 302.807 202.506 322.68 208.55 346.728C211.475 358.356 216.623 369.075 223.369 378.982C225.392 381.936 227.62 384.758 230.273 388.355Z" fill="#DAD8CF"/>
<path fill-rule="evenodd" clip-rule="evenodd" d="M163.262 399.931C149.861 404.629 136.97 407.964 123.486 408.85C121.072 409.005 118.94 408.965 117.413 406.411C110.034 394.118 105.697 380.714 102.053 366.479C115.581 361.68 128.86 358.313 142.784 357.511C145.545 357.341 147.077 358.563 148.402 360.835C155.437 372.83 159.622 385.869 163.262 399.931ZM157.033 396.561C154.096 385.184 150.438 374.494 144.551 364.688C143.847 363.519 141.217 362.788 139.636 362.992C133.099 363.852 126.582 364.994 120.129 366.335C116.242 367.152 112.493 368.55 108.191 369.83C111.694 382.011 115.234 393.408 121.959 403.725C134.042 403.155 145.313 400.483 157.033 396.561Z" fill="#DAD8CF"/>
<path fill-rule="evenodd" clip-rule="evenodd" d="M422.091 240.721C410.979 231.239 401.134 221.406 393.42 209.544C391.671 206.846 392.375 204.77 393.799 202.4C399.978 192.109 407.699 183.053 416.161 174.584C417.368 173.375 418.637 172.254 420.143 170.817C421.666 171.974 423.075 172.884 424.307 173.991C432.952 181.824 441.037 190.149 447.755 199.789C450.391 203.577 450.256 206.457 447.804 210.267C440.71 221.298 432.166 231.024 422.091 240.721ZM420.491 177.545C412.077 185.947 404.789 194.434 398.844 204.04C397.375 206.387 398.546 208.242 399.945 209.898C404.509 215.356 409.083 220.809 413.857 226.087C416.258 228.732 419.081 230.984 421.922 233.618C430.909 224.708 438.672 215.781 444.69 205.071C438.412 194.428 429.851 186.092 420.491 177.545Z" fill="#DAD8CF"/>
<path fill-rule="evenodd" clip-rule="evenodd" d="M59.4141 216.241C52.2532 229.885 42.4626 240.881 31.4617 251.596C20.1829 241.871 10.2157 231.973 2.64273 219.828C1.45644 217.923 1.59492 216.296 2.64946 214.459C9.57489 202.332 18.6855 192.072 29.0359 181.986C41.0485 192.108 51.6661 202.742 59.4141 216.241ZM7.06619 217.173C13.6581 227.819 21.9543 236.294 31.1064 244.546C39.4712 236.434 46.3583 228.117 52.1207 218.838C53.3256 216.901 53.0375 215.293 51.8158 213.52C45.5504 204.475 38.0575 196.605 29.4192 188.915C20.6677 197.693 12.9616 206.603 7.06619 217.173Z" fill="#DAD8CF"/>
<path fill-rule="evenodd" clip-rule="evenodd" d="M287.964 22.716C302.921 17.3479 317.316 13.64 332.923 13.1894C341.602 26.0837 346.144 40.5342 349.835 55.7611C347.569 56.6794 345.832 57.5101 344.017 58.092C332.815 61.6482 321.443 64.432 309.677 65.3349C306.558 65.5823 304.395 65.0041 302.705 62.0628C295.716 49.9715 291.472 36.9045 287.964 22.716ZM343.815 52.5425C340.287 40.3122 336.761 29.0316 330.185 18.5721C317.841 19.058 306.218 22.0266 294.161 26.0637C297.21 37.3704 300.762 47.7217 306.061 57.4291C307.11 59.3534 308.482 60.2476 310.778 60.0232C321.833 58.9713 332.546 56.4886 343.815 52.5425Z" fill="#DAD8CF"/>
<path fill-rule="evenodd" clip-rule="evenodd" d="M153.35 26.4566C150.592 40.5374 146.984 54.048 140.582 66.7393C139.28 69.3153 137.306 69.7592 134.797 69.7396C121.013 69.6196 107.702 66.8173 93.9592 62.9446C96.7477 48.7348 100.392 35.2602 106.701 22.5464C108.202 19.5318 110.53 19.6038 113.113 19.6364C126.695 19.822 139.818 22.5568 153.35 26.4566ZM99.8526 59.6203C107.662 61.0823 114.703 62.8703 121.846 63.6195C138.441 65.3487 135.364 67.0798 141.328 51.8485C144.032 44.9392 146.066 37.775 147.166 30.0479C136.201 27.1222 125.543 25.1601 114.613 24.7373C112.052 24.6326 110.743 25.8118 109.758 27.995C105.345 37.7605 102.341 47.9429 99.8526 59.6203Z" fill="#DAD8CF"/>
<path fill-rule="evenodd" clip-rule="evenodd" d="M298.67 395.746C301.268 382.011 304.786 369.234 310.402 357.038C312.066 353.426 314.198 351.989 318.236 352.116C331.667 352.552 344.641 355.243 357.886 358.974C357.668 360.801 357.606 362.451 357.27 364.063C354.761 375.879 351.424 387.406 346.219 398.351C344.739 401.472 342.803 402.819 339.273 402.727C325.635 402.374 312.433 399.719 298.67 395.746ZM304.61 392.121C315.874 395.029 326.361 396.972 337.12 397.536C340.376 397.7 341.897 396.143 342.774 393.481C345.658 384.733 348.533 375.968 351.306 367.17C351.726 365.839 351.614 364.325 351.771 362.639C341.05 359.774 330.539 357.875 319.776 357.329C316.981 357.184 315.457 358.292 314.367 360.775C309.985 370.614 306.987 380.867 304.61 392.121Z" fill="#DAD8CF"/>
<path fill-rule="evenodd" clip-rule="evenodd" d="M141.318 387.939C135.989 390.787 131.032 393.443 124.879 396.74C124.372 390.143 123.956 384.734 123.502 378.774C128.697 375.892 133.754 373.08 139.295 370.014C141.357 376.149 140.912 381.702 141.318 387.939ZM134.909 378.623C128.29 381.654 128.29 381.654 130.273 387.562C136.409 385.28 136.409 385.28 134.909 378.623Z" fill="#DAD8CF"/>
<path fill-rule="evenodd" clip-rule="evenodd" d="M406.016 206.035C411.801 202.086 416.313 199.008 421.227 195.639C426.108 198.65 430.791 201.517 436.097 204.775C431.817 209.699 426.787 212.329 421.477 215.521C416.849 212.694 412.168 209.819 406.016 206.035ZM426.549 205.667C421.4 201.266 421.401 201.266 416.596 205.673C421.262 210.127 421.262 210.127 426.549 205.667Z" fill="#DAD8CF"/>
<path fill-rule="evenodd" clip-rule="evenodd" d="M15.6148 216.927C20.4763 213.435 24.2984 210.508 28.3299 207.911C29.3338 207.264 31.3382 207.181 32.3732 207.754C36.6287 210.078 40.6893 212.766 45.8939 215.989C41.0218 219.487 37.0673 222.473 32.927 225.204C32.0735 225.773 30.3192 225.857 29.4364 225.352C25.0523 222.879 20.8182 220.136 15.6148 216.927ZM35.921 216.075C30.1538 212.033 30.1537 212.033 26.0052 216.827C31.0833 220.954 31.0833 220.954 35.921 216.075Z" fill="#DAD8CF"/>
<path fill-rule="evenodd" clip-rule="evenodd" d="M326.07 25.902C326.59 32.0929 327.167 37.1206 327.323 42.1568C327.349 43.2761 326.114 44.8912 325.028 45.5296C321.003 47.8581 316.8 49.8979 311.624 52.5802C311.09 46.7146 310.443 41.7155 310.328 36.6983C310.304 35.4154 311.671 33.6084 312.9 32.8674C316.703 30.5723 320.75 28.673 326.07 25.902ZM321.518 34.8958C314.655 37.1191 314.365 37.7248 316.887 43.6654C322.407 41.435 322.407 41.435 321.518 34.8958Z" fill="#DAD8CF"/>
<path fill-rule="evenodd" clip-rule="evenodd" d="M131.596 58.5302C125.276 55.6374 120.227 53.3207 114.653 50.7854C114.888 44.9215 115.105 39.2242 115.377 32.2847C121.453 35.038 126.463 37.3042 132.059 39.8261C131.92 45.6384 131.786 51.3735 131.596 58.5302ZM120.241 40.4491C120.155 43.4322 120.104 45.3256 120.041 47.5528C122.076 48.3852 123.984 49.1697 126.548 50.2263C126.654 47.3494 126.737 45.2882 126.814 43.0825C124.725 42.2607 122.974 41.5497 120.241 40.4491Z" fill="#DAD8CF"/>
<path fill-rule="evenodd" clip-rule="evenodd" d="M336.417 372.053C336.177 377.954 335.956 383.644 335.688 390.461C329.539 387.68 324.37 385.349 318.937 382.894C319.175 376.964 319.378 371.44 319.613 365.469C326.098 366.246 330.704 369.858 336.417 372.053ZM330.842 382.606C330.921 379.419 330.964 377.352 331.011 375.12C328.791 374.328 326.902 373.663 324.469 372.817C324.421 375.653 324.399 377.537 324.36 379.587C326.265 380.486 327.993 381.279 330.842 382.606Z" fill="#DAD8CF"/>
</svg>
