<svg width="473" height="407" viewBox="0 0 473 407" fill="none" xmlns="http://www.w3.org/2000/svg">
<path fill-rule="evenodd" clip-rule="evenodd" d="M49.5337 0C54.2586 18.0304 50.7479 33.9499 37.3825 47.2625C31.0387 53.5717 23.7771 58.6342 15.7014 62.4925C14.1578 63.2292 12.5296 63.8101 10.506 64.6412C10.1765 63.0639 9.85172 62.0297 9.76231 60.9813C8.9905 52.0605 9.48475 43.2437 11.4001 34.4646C14.6426 19.5699 23.0382 8.80269 36.5401 1.94094C37.6789 1.36952 38.7566 0.661146 39.8485 0.00472247C35.3353 0.00472247 30.8127 0.00472247 26.2996 0.00472247C25.8572 0.47697 25.4807 1.02005 24.9771 1.39785C13.4331 10.0778 7.04215 21.8178 4.52438 35.905C2.34545 48.1267 2.38322 60.2635 5.41396 73C7.27287 72.5041 8.93406 72.1877 10.4965 71.6163C22.61 67.163 33.3823 60.4996 42.465 51.305C56.701 36.8731 60.7012 19.551 56.3057 0C54.0468 0 51.7832 0 49.5337 0Z" fill="#DAD8CF"/>
<path fill-rule="evenodd" clip-rule="evenodd" d="M113.116 0C115.351 1.26674 117.591 2.51935 119.807 3.81906C130.479 10.0727 137.463 19.18 140.742 31.0987C143.693 41.7977 144.29 52.6662 142.785 64.2929C141.185 63.7843 139.815 63.5206 138.592 62.9508C129.105 58.5997 120.598 52.7698 113.577 45.0517C101.728 32.0264 98.9658 16.7973 103.441 0.00470907C101.182 0.00470907 98.9188 0.00470907 96.6695 0.00470907C92.0203 20.9083 96.9659 38.8828 112.956 53.495C121.256 61.0719 130.621 66.9065 141.133 70.8668C143.053 71.592 145.039 72.1524 147.622 73C148.356 68.6111 149.269 64.7309 149.617 60.8035C150.554 50.3023 149.801 39.8999 147.043 29.6813C144.102 18.7751 138.347 9.68656 129.51 2.5947C128.517 1.79416 127.618 0.875887 126.677 0C122.15 0 117.638 0 113.116 0Z" fill="#DAD8CF"/>
<path fill-rule="evenodd" clip-rule="evenodd" d="M291.143 0C292.045 1.29822 292.923 2.61506 293.853 3.89932C303.355 17.0305 304.493 31.39 300.183 47.1316C298.296 46.6244 296.632 46.2661 295.046 45.731C274.426 38.742 262.759 22.7398 261.654 0C259.439 0 257.22 0 255 0C255.606 3.60618 256.138 7.22631 256.817 10.8046C260.54 30.4454 272.036 43.5673 290.324 50.775C294.685 52.492 299.309 53.5668 304.054 55C304.756 53.3668 305.353 52.2826 305.714 51.1286C310.944 34.0516 310.453 17.5935 300.428 2.16371C300.031 1.55415 299.943 0.725888 299.707 0C296.849 0 293.996 0 291.143 0Z" fill="#DAD8CF"/>
<path fill-rule="evenodd" clip-rule="evenodd" d="M394.336 0.00936888C393.304 15.3884 388.393 28.8374 375.684 38.3702C369.903 42.708 363.489 45.6639 356.2 47.3269C354.096 43.0922 353.772 38.6279 353.49 34.2339C352.75 22.579 355.812 12.0203 363.013 2.78724C363.697 1.91594 364.243 0.936888 364.844 0.00468444C361.99 0.00468444 359.137 0.00468444 356.279 0.00468444C355.539 1.55992 354.887 3.15263 354.041 4.64228C344.8 20.9113 345.434 37.6254 351.446 55C361.209 53.5291 369.829 50.1891 377.687 44.8254C391.057 35.6861 397.74 22.49 400.024 6.67064C400.339 4.44553 400.676 2.22511 401 0C398.78 0.00936888 396.56 0.00936888 394.336 0.00936888Z" fill="#DAD8CF"/>
<path fill-rule="evenodd" clip-rule="evenodd" d="M-10.9952 223.784C-8.29997 224.384 -5.57137 224.863 -2.92376 225.602C6.37623 228.164 14.1047 233.168 21.0999 240.241C11.9952 249.268 1.76191 255.146 -10.9952 256.308C-10.9952 258.54 -10.9952 260.777 -10.9952 263C4.99048 261.075 17.938 253.709 28.4856 242.018C28.9142 241.543 29.2952 241.036 30 240.176C22.8191 231.713 14.2809 225.063 3.73328 221.04C-0.971476 219.24 -5.80953 217.715 -11 218.045C-10.9952 219.961 -10.9952 221.868 -10.9952 223.784Z" fill="#DAD8CF"/>
<path fill-rule="evenodd" clip-rule="evenodd" d="M440.97 0C437.791 9.61743 435.522 19.3988 435.015 29.5643C434.86 32.5484 435.878 34.2302 438.532 35.5559C447.361 39.936 456.672 42.7561 466.556 45C467.035 44.0397 467.644 43.1355 467.939 42.1377C470.485 33.6821 472.38 25.1187 472.966 16.2695C473.196 12.7561 472.314 10.4513 468.873 9.20518C462.407 6.87227 455.979 4.42692 449.541 1.99563C447.947 1.39132 446.399 0.669894 444.824 0C443.544 0 442.255 0 440.97 0ZM438.93 31.2414C438.883 22.0456 440.946 13.426 443.572 4.45034C452.19 6.48345 460.058 9.04122 467.518 12.8217C469.112 13.6368 469.248 15.0562 469.046 16.5272C468.366 21.4507 467.808 26.3976 466.838 31.2695C466.223 34.3145 465.923 37.5656 463.954 40.4279C455.205 38.2776 446.831 35.7339 438.93 31.2414Z" fill="#DAD8CF"/>
<path fill-rule="evenodd" clip-rule="evenodd" d="M211.153 0C209.588 0.669336 208.032 1.3808 206.439 1.99397C199.871 4.49813 193.289 6.9742 186.711 9.43624C183.947 10.4613 182.86 12.2446 183.014 15.2871C183.534 25.4067 185.75 35.1331 188.997 45C199.431 42.786 209.129 39.7717 218.288 35.0629C220.513 33.9115 221.272 32.3013 220.916 30.0265C219.707 22.4579 218.545 14.8892 217.192 7.35334C216.732 4.85854 215.753 2.45267 215.013 0.00468067C213.725 0 212.446 0 211.153 0ZM212.141 4.53089C215.435 13.4055 217.356 24.8825 216.709 31.4167C209.002 35.7135 200.588 38.4002 191.564 40.4691C189.124 32.306 187.418 24.5267 186.945 16.4994C186.851 15.0016 186.917 13.6114 188.501 12.8063C195.964 9.04774 203.806 6.44529 212.141 4.53089Z" fill="#DAD8CF"/>
<path fill-rule="evenodd" clip-rule="evenodd" d="M64 0C64.6218 7.14894 67.8527 13.3399 70.9759 19.5404C72.402 22.3619 74.3189 24.9307 76.2546 28C77.3253 26.7609 78.0265 26.127 78.5174 25.3549C83.4501 17.5244 87.775 9.4366 89 0C87.3916 0 85.7926 0 84.1889 0C82.0428 8.68357 79.2749 14.8269 75.9973 17.9009C72.6637 12.2485 70.3072 6.31013 68.8017 0C67.2026 0 65.599 0 64 0Z" fill="#DAD8CF"/>
<path fill-rule="evenodd" clip-rule="evenodd" d="M92.2972 267.936C108.324 276.876 124.794 280.543 142.561 279.122C140.326 267.884 126.171 251.712 108.725 240.151C123.856 230.808 135.486 218.439 143 202.253C133.447 198.257 113.794 202.108 92.3626 212.084C91.7419 194.158 87.0749 177.676 76.6767 163C68.2341 170.171 61.0421 191.526 60.034 212.239C44.3295 203.599 27.7568 199.58 9.1353 201.235C12.5189 210.119 17.648 217.084 23.5285 223.561C29.353 229.973 35.6814 235.789 43.9747 239.93C28.2981 249.541 16.7939 261.942 8.99999 278.672C18.4881 280.393 27.1128 279.202 35.6628 277.345C44.1055 275.501 52.2261 272.753 60.0201 267.715C60.4868 286.129 65.3264 302.536 76.1446 318C87.0002 302.616 91.8399 286.219 92.2972 267.936ZM135.547 274.057C133.297 274.193 132.219 274.376 131.164 274.315C122.348 273.738 113.78 271.913 105.496 268.865C99.1251 266.519 93.4361 263.02 88.7504 258.016C85.9688 255.066 83.7565 251.75 82.8605 247.721C82.0297 243.936 82.6691 242.937 86.4401 241.82C92.2739 240.099 97.8697 241.318 103.241 243.57C117.434 249.503 126.623 260.825 135.547 274.057ZM17.1113 274.469C18.0307 272.617 18.362 271.74 18.8707 270.961C24.3592 262.589 30.9864 255.249 38.953 249.203C44.3761 245.08 50.4293 242.111 57.2385 241.398C60.3281 241.07 63.5996 241.483 66.6659 242.139C69.6901 242.801 70.4322 244.006 69.4661 247.088C68.4814 250.23 67.0579 253.391 65.1444 256.046C61.5368 261.083 56.459 264.493 50.8959 267.101C43.0133 270.802 34.6361 272.743 26.0488 273.827C23.4025 274.155 20.7236 274.221 17.1113 274.469ZM76.0513 307.85C68.6868 297.231 63.7723 276.702 65.7885 264.812C66.2879 261.843 67.1932 258.874 68.3973 256.112C69.9935 252.43 72.0796 247.932 76.2799 247.979C80.1909 248.007 82.4405 252.312 83.8079 255.91C85.2127 259.601 86.4261 263.541 86.7621 267.462C87.9569 281.514 83.5699 294.333 77.3114 306.626C77.12 306.997 76.6721 307.255 76.0513 307.85ZM17.2934 206.385C18.5861 206.183 19.1974 205.982 19.7995 206.01C31.7658 206.507 43.2513 209.007 53.8735 214.739C59.2966 217.67 63.9824 221.563 67.1467 226.985C68.8315 229.879 71.0389 233.289 69.1908 236.403C67.4967 239.278 63.6463 239.152 60.4307 239.114C52.0627 239.006 44.8989 235.578 38.4164 230.639C31.0891 225.067 24.9986 218.261 19.7761 210.677C18.9734 209.528 18.3528 208.233 17.2934 206.385ZM134.235 205.808C134.352 206.779 134.529 207.145 134.408 207.375C133.918 208.374 133.414 209.392 132.784 210.316C127.725 217.82 121.69 224.433 114.652 230.104C109.467 234.274 103.634 237.229 97.095 238.603C93.128 239.428 89.175 239.456 85.2641 238.073C83.0846 237.304 81.9645 235.864 82.7299 233.687C83.7893 230.7 84.8347 227.595 86.5755 224.992C90.0291 219.813 95.0695 216.333 100.577 213.575C107.661 210.011 115.254 208.125 123.02 206.925C126.74 206.348 130.516 206.165 134.235 205.808ZM76.1727 172.179C76.9474 173.258 77.5682 173.947 77.9695 174.744C82.3892 183.375 85.3527 192.516 86.6455 202.108C87.7049 209.987 87.2662 217.844 83.5092 225.099C81.8338 228.34 79.925 232.444 75.9347 232.28C72.3364 232.125 70.4182 228.261 68.7987 225.109C65.8445 219.41 65.023 213.228 65.3171 206.896C65.8444 195.316 69.4661 184.599 74.5765 174.322C74.9032 173.661 75.4586 173.122 76.1727 172.179ZM76.308 242.965C75.2579 241.562 74.1658 240.709 74.2731 240.08C74.3992 239.339 75.5145 238.476 76.3406 238.284C76.8073 238.176 78.0534 239.33 78.0534 239.916C78.0581 240.699 77.2087 241.497 76.308 242.965Z" fill="#DAD8CF"/>
<path fill-rule="evenodd" clip-rule="evenodd" d="M53.4352 200C56.3942 193.122 57.763 185.792 57.9747 178.309C58.4357 162.236 52.5885 148.728 40.6164 137.817C32.2196 130.175 22.7643 124.239 12.1329 120.178C10.0678 119.385 7.93209 118.774 5.59884 118C2.80458 128.156 2.52239 137.98 3.53848 147.87C3.94304 151.815 4.66751 155.764 5.63186 159.629C9.25875 174.163 17.6603 185.191 30.8319 192.586C37.8975 196.55 45.8192 199.189 53.4352 200ZM49.0792 192.824C32.4031 188.38 19.9089 179.819 13.723 163.854C10.1572 154.636 9.10339 144.965 9.50795 135.14C9.61615 132.361 9.95024 129.596 10.2325 126.207C12.594 127.209 14.2121 127.829 15.7739 128.575C23.2252 132.138 29.9616 136.744 36.0346 142.307C51.149 156.16 54.362 173.035 49.0792 192.824Z" fill="#DAD8CF"/>
<path fill-rule="evenodd" clip-rule="evenodd" d="M147.497 118C137.766 120.664 129.38 124.971 121.588 130.455C118.831 132.404 116.229 134.583 113.683 136.8C97.6559 150.794 92.3717 168.436 96.1831 189.058C96.9078 192.974 98.1877 196.792 99.3076 201C110.916 199.15 121.033 195.05 129.875 187.961C138.034 181.423 143.586 173.031 146.49 163.028C150.748 148.375 151.19 133.571 147.497 118ZM103.895 193.393C98.8134 174.207 101.524 157.62 115.584 143.767C122.063 137.379 129.451 132.258 137.686 128.379C139.201 127.664 140.829 127.155 142.768 126.421C144.447 140.608 143.789 153.882 138.321 166.459C131.86 181.315 119.711 189.275 103.895 193.393Z" fill="#DAD8CF"/>
<path fill-rule="evenodd" clip-rule="evenodd" d="M218 240.308C215.278 238.077 212.832 235.842 210.152 233.912C199.141 225.936 187.065 220.329 173.435 218.468C161.377 216.815 150.231 219.604 139.918 225.848C133.585 229.681 128.117 234.48 123 240.576C125.596 243.208 127.972 245.924 130.666 248.27C144.015 259.899 159.296 265.464 177.163 261.963C186.826 260.079 195.788 256.283 204.151 251.12C209.01 248.113 213.716 244.889 218 240.308ZM208.262 240.327C207.074 241.384 206.344 242.174 205.474 242.779C196.073 249.328 185.844 254.154 174.45 255.992C157.56 258.717 143.903 252.394 131.779 240.497C143.042 229.418 155.713 223.036 171.536 224.597C182.56 225.686 192.5 230.037 201.821 235.801C203.949 237.117 205.923 238.669 208.262 240.327Z" fill="#DAD8CF"/>
<path fill-rule="evenodd" clip-rule="evenodd" d="M147.412 363C150.159 352.684 150.488 342.891 149.472 333.07C148.654 325.189 147.073 317.439 143.536 310.245C135.968 294.854 123.122 286.163 107.082 281.573C104.796 280.918 102.425 280.551 99.8429 280C99.2267 281.427 98.6294 282.528 98.2625 283.715C95.5249 292.59 94.2643 301.601 95.4402 310.914C97.0018 323.282 102.477 333.598 111.409 342.133C120.135 350.476 130.13 356.846 141.471 361.07C143.249 361.729 145.088 362.247 147.412 363ZM103.766 288.286C104.457 288.112 104.758 287.985 105.069 287.966C105.379 287.947 105.713 288.013 106.024 288.093C123.719 293.206 136.137 303.828 141.01 322.11C143.527 331.564 144.105 341.201 143.188 350.928C143.094 351.978 142.765 352.995 142.492 354.304C141.208 353.909 140.267 353.744 139.425 353.367C129.119 348.786 119.947 342.496 112.571 333.965C100.878 320.443 99.1796 304.883 103.766 288.286Z" fill="#DAD8CF"/>
<path fill-rule="evenodd" clip-rule="evenodd" d="M5.47213 363C9.53601 361.471 13.1713 360.28 16.6654 358.751C26.3707 354.502 34.9882 348.592 42.4661 341.144C56.2541 327.384 60.3369 310.725 56.7863 291.955C56.0517 288.072 54.7707 284.296 53.6217 280C50.0805 280.825 47.0903 281.346 44.2131 282.237C20.7434 289.474 7.20504 305.092 3.90873 329.475C2.69381 338.471 2.64674 347.401 4.07357 356.349C4.39849 358.366 4.91176 360.359 5.47213 363ZM49.0258 287.631C53.8242 305.228 52.016 320.846 40.0315 334.339C32.7749 342.509 23.8796 348.602 13.8823 353.062C12.8134 353.54 11.5844 353.686 10.1199 354.061C8.48119 339.887 9.18278 326.479 14.9231 313.848C21.4498 299.464 33.4625 291.795 49.0258 287.631Z" fill="#DAD8CF"/>
<path fill-rule="evenodd" clip-rule="evenodd" d="M360.499 94.8686C376.333 85.3949 388 72.9732 395.901 56.0117C386.365 54.6926 377.7 55.5188 369.064 57.453C360.546 59.359 352.287 61.9457 344.41 67.1895C343.867 48.6695 339.059 32.2385 328.24 17C321.999 24.4831 318.638 32.5577 315.951 40.9657C313.306 49.2469 311.576 57.6971 312.085 67.1707C299.904 59.88 287.228 56.5328 273.902 55.5517C269.64 55.2418 265.341 55.5611 260 55.5986C268.094 72.9825 279.889 85.4419 295.577 94.8779C280.016 104.168 268.193 116.684 260.212 133.683C269.716 135.406 278.404 134.162 287.026 132.317C295.553 130.481 303.812 127.862 311.708 122.581C312.298 141.129 317.078 157.597 328.08 173C338.955 157.649 343.905 141.265 344.377 122.975C360.461 131.683 377.191 135.711 396 133.913C388.038 116.82 376.281 104.286 360.499 94.8686ZM268.787 128.604C269.598 127.148 270.121 125.989 270.833 124.956C275.924 117.445 282.029 110.816 289.128 105.14C294.356 100.967 300.197 97.7698 306.862 96.7041C310.28 96.1549 313.952 96.2018 317.37 96.7933C321.726 97.5538 322.353 99.0232 321.117 103.333C320.627 105.009 319.873 106.661 318.991 108.173C316.517 112.426 313.005 115.773 308.889 118.407C297.123 125.928 284.023 128.796 270.229 129.134C269.937 129.143 269.64 128.923 268.787 128.604ZM388 128.913C385.681 129.059 384.564 129.233 383.47 129.181C373.057 128.585 363.03 126.313 353.512 122.027C348.614 119.815 344.065 116.9 340.685 112.741C338.394 109.924 336.396 106.671 335.095 103.295C333.482 99.1406 334.458 97.8778 338.729 96.6854C343.415 95.385 348.063 95.9436 352.56 97.4553C368.451 102.821 378.341 114.886 388 128.913ZM327.915 26.2952C328.947 27.8444 329.546 28.5674 329.97 29.3936C334.345 37.9048 337.282 46.909 338.616 56.3404C339.71 64.0582 339.314 71.7714 335.835 78.9775C334.086 82.6064 331.913 85.9536 327.722 87.3385C322.631 84.4232 320.189 79.8037 318.596 74.6303C316.875 69.011 316.606 63.2085 317.379 57.4389C318.826 46.7165 322.07 36.5293 327.915 26.2952ZM327.378 163.09C325.553 158.973 323.658 155.269 322.239 151.4C318.742 141.847 316.135 132.092 317.304 121.759C318.002 115.586 319.68 109.774 324.134 105.145C327.378 101.788 328.792 101.816 332.073 105.253C336.391 109.774 338.187 115.421 338.748 121.426C340.11 136.021 335.637 149.283 328.971 161.991C328.853 162.226 328.486 162.343 327.378 163.09ZM268.999 61.1757C269.376 60.8377 269.47 60.6875 269.598 60.664C270.069 60.5655 270.545 60.4246 271.017 60.4528C283.372 61.157 295.294 63.5606 306.207 69.6494C311.473 72.5929 316.187 76.372 319.062 81.7332C324.026 90.9956 321.99 93.2208 312.463 93.6245C310.096 93.7231 307.508 93.5306 305.335 92.6903C300.574 90.8219 295.648 88.9863 291.452 86.1696C282.816 80.3765 276.037 72.5976 270.305 63.9643C269.716 63.0817 269.395 62.0348 268.999 61.1757ZM386.657 60.035C386.841 60.4669 387.015 60.8894 387.189 61.3166C385.313 65.5605 382.348 69.1283 379.317 72.5929C373.25 79.508 366.806 86.0052 358.307 90.0426C353.456 92.3429 348.388 94.0141 342.948 93.6292C334.458 93.0142 332.205 91.235 336.716 82.381C339.884 76.1561 345.343 72.1094 351.363 68.8091C357.496 65.4337 364.161 63.5371 370.973 62.2696C376.168 61.3025 381.424 60.772 386.657 60.035ZM324.785 94.8873C326.275 93.8592 327.024 93.0001 327.925 92.7983C329.452 92.4509 330.409 93.6151 330.253 94.9343C330.154 95.7136 328.929 96.9436 328.245 96.9248C327.279 96.8872 326.35 95.8779 324.785 94.8873Z" fill="#DAD8CF"/>
<path fill-rule="evenodd" clip-rule="evenodd" d="M257.554 218C269.925 214.314 280.356 208.265 289.72 200.174C298.904 192.247 305.357 182.657 307.847 170.586C310.213 159.156 308.776 148.024 305.016 137.112C304.872 136.682 304.494 136.346 304.239 136C280.998 138.088 261.652 155.643 257.014 178.607C254.551 190.822 254.191 203.005 256.806 215.221C256.968 215.982 257.212 216.729 257.554 218ZM262.303 209.652C261.998 207.957 261.707 206.896 261.619 205.831C260.899 196.853 261.375 187.978 263.389 179.163C266.9 163.687 275.912 152.933 290.178 146.599C293.291 145.221 296.603 144.273 300.068 143.03C302.442 150.785 303.182 158.021 302.281 165.401C300.946 176.304 296.146 185.436 288.233 192.929C280.791 199.978 272.526 205.71 262.303 209.652Z" fill="#DAD8CF"/>
<path fill-rule="evenodd" clip-rule="evenodd" d="M351.686 135C342.868 157.103 346.172 181.848 364.349 198.294C372.608 205.755 381.699 211.741 391.987 215.791C394.015 216.592 396.123 217.218 398.434 218C401.188 207.954 401.428 198.186 400.537 188.371C400.158 184.222 399.409 180.063 398.424 176.008C394.704 160.583 385.831 149.158 372.04 141.763C365.727 138.372 359.034 136.046 351.686 135ZM393.923 209.386C392.495 208.943 391.584 208.759 390.753 208.383C380.354 203.664 371.092 197.216 363.753 188.319C352.624 174.816 351.168 159.406 355.799 142.465C371.878 146.789 384.134 155.271 390.244 171.11C394.917 183.2 395.541 195.874 393.923 209.386Z" fill="#DAD8CF"/>
<path fill-rule="evenodd" clip-rule="evenodd" d="M470 94.9824C462.907 88.0207 455.039 82.8673 446.379 78.9039C439.206 75.6198 431.784 73.0104 423.846 72.2514C410.443 70.9771 398.334 74.5657 387.652 82.5909C382.942 86.1233 378.757 90.3584 374 94.5701C384.354 106.666 396.092 114.991 411.475 117.437C421.801 119.067 431.615 116.997 441.181 113.291C449.775 109.969 457.709 105.448 464.849 99.6017C466.566 98.2056 468.161 96.6408 470 94.9824ZM383.294 95.1323C384.176 94.1438 384.734 93.3849 385.41 92.7524C399.812 79.3911 416.241 74.9171 435.218 81.3682C444.244 84.4321 452.609 88.6157 460.204 94.8653C459.261 95.746 458.628 96.4675 457.877 97.0156C448.936 103.542 439.093 108.287 428.27 110.531C410.415 114.228 395.909 107.758 383.294 95.1323Z" fill="#DAD8CF"/>
<path fill-rule="evenodd" clip-rule="evenodd" d="M282 95.147C267.544 76.9838 244.04 64.9829 215.228 76.5711C204.492 80.8856 194.727 86.6446 186 95.0532C188.753 97.3512 191.21 99.6444 193.912 101.619C205.256 109.934 217.698 115.782 231.815 117.592C242.772 119.013 253.003 116.668 262.608 111.411C270.189 107.275 276.568 101.745 282 95.147ZM273.409 94.9641C261.17 106.998 247.605 113.657 230.645 110.956C218.288 108.986 207.292 103.701 197.32 96.2444C196.858 95.9068 196.575 95.3112 196.227 94.8516C203.077 88.769 212.96 83.5869 224.092 80.4354C243.352 74.9907 259.265 80.9888 273.409 94.9641Z" fill="#DAD8CF"/>
<path fill-rule="evenodd" clip-rule="evenodd" d="M188.936 336C199.302 333.729 208.613 330.848 217.451 326.471C220.105 325.162 221.132 323.482 220.987 320.479C220.518 310.443 218.22 300.83 215.126 291C213.696 291.249 212.472 291.385 211.272 291.671C202.654 293.688 194.304 296.461 186.361 300.449C183.891 301.698 182.892 303.255 183.009 306.084C183.45 316.261 185.832 325.992 188.936 336ZM191.383 330.975C189.029 322.417 186.812 313.793 187.004 304.499C195.073 300.201 203.451 297.395 212.472 295.326C214.999 304.597 217.353 313.216 216.978 322.103C209.687 326.377 198.031 330.426 191.383 330.975Z" fill="#DAD8CF"/>
<path fill-rule="evenodd" clip-rule="evenodd" d="M188.78 146.135C185.371 156.814 182.643 167.625 183.038 179.336C192.753 185.392 203.493 188.347 214.671 191C215.23 189.685 215.762 188.728 216.067 187.706C218.63 179.034 220.643 170.273 220.991 161.178C221.085 158.51 220.497 156.724 217.868 155.405C209.178 151.059 200.051 148.095 190.59 146.036C190.148 145.932 189.659 146.083 188.78 146.135ZM212.39 186.433C203.931 184.463 196.191 181.942 188.803 178.271C187.289 177.517 186.739 176.438 186.828 174.802C187.242 166.545 189.015 158.586 191.328 150.748C192.156 150.673 192.669 150.47 193.073 150.612C200.211 153.067 207.335 155.574 214.464 158.058C216.632 158.812 217.266 160.329 217.102 162.577C216.505 170.481 214.915 178.177 212.39 186.433Z" fill="#DAD8CF"/>
<path fill-rule="evenodd" clip-rule="evenodd" d="M466.67 145C455.529 147.366 445.032 150.61 435.051 156.398C434.59 167.932 437.316 178.842 440.934 190C443.166 189.521 445.027 189.193 446.864 188.728C454.81 186.69 462.559 184.09 469.88 180.311C471.938 179.255 473 178.029 473 175.532C472.986 167.805 470.058 152.722 466.67 145ZM443.495 185.508C441.019 177.321 439.355 169.528 438.833 161.496C438.697 159.459 439.313 158.06 441.277 157.37C448.391 154.877 455.492 152.375 462.625 149.924C463.137 149.751 463.818 150.023 464.664 150.117C466.83 157.792 468.583 165.411 469.076 173.298C469.194 175.25 468.79 176.635 466.835 177.569C459.556 181.024 452.014 183.63 443.495 185.508Z" fill="#DAD8CF"/>
<path fill-rule="evenodd" clip-rule="evenodd" d="M50 95.5278C57.3246 103.518 64.8871 110.784 73.9472 116.371C75.5521 117.354 76.8818 117.105 78.3747 116.178C87.2575 110.629 94.7314 103.494 102 95.509C94.6474 87.4812 87.0848 80.2247 78.0434 74.6377C76.4292 73.636 75.1275 73.904 73.6532 74.8211C64.7704 80.3846 57.3013 87.5376 50 95.5278ZM55.1971 95.5372C61.2388 89.1695 67.2524 83.512 74.3064 79.0866C75.1555 78.5646 76.8958 78.574 77.7309 79.1054C84.7755 83.5402 90.7984 89.193 96.8214 95.5372C90.7798 101.839 84.7569 107.506 77.7122 111.95C76.8724 112.482 75.1228 112.472 74.2784 111.941C67.2337 107.487 61.2201 101.83 55.1971 95.5372Z" fill="#DAD8CF"/>
<path fill-rule="evenodd" clip-rule="evenodd" d="M50 385.31C57.3901 393.495 64.6596 400.376 73.1035 405.943C75.2713 407.37 77.0213 407.341 79.1799 405.924C87.6376 400.366 94.8652 393.462 102 385.621C94.6656 377.506 87.0388 370.178 77.894 364.555C76.4085 363.646 75.1923 363.938 73.9482 364.823C71.0934 366.848 68.0621 368.685 65.444 370.988C60.2867 375.505 55.3755 380.285 50 385.31ZM55.2408 385.418C59.7668 381.288 63.6476 377.252 68.0158 373.847C77.337 366.599 74.8859 366.688 84.1561 373.738C88.6913 377.176 92.767 381.151 96.8148 385.668C90.8313 391.922 84.9081 397.423 78.1539 401.987C76.5663 403.065 75.2898 402.797 73.8183 401.803C67.2173 397.286 61.3962 391.903 55.2408 385.418Z" fill="#DAD8CF"/>
<path fill-rule="evenodd" clip-rule="evenodd" d="M354 240.533C346.668 232.54 339.176 225.311 330.235 219.742C328.687 218.777 327.36 218.739 325.793 219.713C316.824 225.264 309.356 232.521 302 240.486C309.285 248.541 316.814 255.708 325.741 261.297C327.519 262.409 328.969 262.105 330.615 261.064C339.387 255.542 346.734 248.403 354 240.533ZM307.226 240.514C313.146 234.313 319.118 228.771 325.952 224.19C327.317 223.282 328.556 223.216 329.94 224.142C336.784 228.719 342.784 234.241 348.713 240.533C342.235 247.301 335.728 253.379 327.97 258.103C320.107 253.232 313.676 247.244 307.226 240.514Z" fill="#DAD8CF"/>
<path fill-rule="evenodd" clip-rule="evenodd" d="M464 16.5025C459.302 16.2599 455.792 15.9461 452.292 16.0079C451.241 16.0269 449.788 16.8639 449.259 17.7627C447.472 20.811 446.014 24.059 444 28.1012C449.066 28.4341 453.316 28.7147 457.755 29C459.769 24.9816 461.623 21.258 464 16.5025ZM450.693 24.3491C452.368 19.4652 452.368 19.4652 457.142 20.4781C455.797 25.2051 455.797 25.2051 450.693 24.3491Z" fill="#DAD8CF"/>
<path fill-rule="evenodd" clip-rule="evenodd" d="M198.436 29C202.651 28.7583 206.634 28.5439 211 28.2976C210.076 23.7092 207.709 20.4481 205.983 17C201.7 17 197.589 17 193 17C194.038 21.5975 196.346 24.8997 198.436 29ZM198.845 20.7583C203.921 20.0468 203.921 20.0468 205.023 24.5074C200.498 25.5063 200.498 25.5063 198.845 20.7583Z" fill="#DAD8CF"/>
<path fill-rule="evenodd" clip-rule="evenodd" d="M193 307.568C194.063 312.001 196.464 315.157 198.552 319C202.685 318.812 206.916 318.615 212 318.375C210.82 315.931 210.062 314.2 209.173 312.526C208.251 310.795 207.216 309.111 206.008 307C201.847 307.184 197.634 307.363 193 307.568ZM199.123 311.24C204.103 310.266 204.482 310.497 205.184 314.851C200.461 315.586 200.461 315.586 199.123 311.24Z" fill="#DAD8CF"/>
<path fill-rule="evenodd" clip-rule="evenodd" d="M212 162.713C207.437 162.414 203.782 162.062 200.132 162C199.223 161.991 197.91 162.686 197.453 163.416C195.631 166.363 194.07 169.447 192 173.26C196.554 173.559 200.327 173.889 204.101 173.999C204.881 174.026 206.033 173.405 206.414 172.781C208.265 169.697 209.916 166.509 212 162.713ZM205.476 166.355C203.34 170.916 203.34 170.916 198.767 169.552C200.37 165.264 200.37 165.264 205.476 166.355Z" fill="#DAD8CF"/>
<path fill-rule="evenodd" clip-rule="evenodd" d="M444 162.731C446.037 166.542 447.671 169.867 449.602 173.021C450.001 173.674 451.495 174.025 452.474 173.999C455.765 173.911 459.055 173.604 463 173.341C461.83 169.253 459.807 165.99 457.686 162.806C457.315 162.249 456.029 161.968 455.185 162.003C451.75 162.121 448.316 162.424 444 162.731ZM450.437 166.156C455.561 165.385 455.561 165.385 456.744 169.735C452.177 170.784 452.177 170.784 450.437 166.156Z" fill="#DAD8CF"/>
<path fill-rule="evenodd" clip-rule="evenodd" d="M84 95.1246C81.5606 91.501 79.2985 88.136 76.5233 84C73.7527 88.1129 71.4301 91.5472 69 95.1523C71.3881 98.7944 73.6268 102.201 76.1222 106C79.6343 102.866 81.374 99.0252 84 95.1246ZM79.3358 94.9769C78.5242 96.6156 78.0531 98.2866 75.9822 98.9236C75.1427 97.5804 74.4057 96.3987 73.5522 95.0277C74.5363 93.7583 75.4459 92.5858 76.5933 91.0995C77.7314 92.7058 78.5242 93.8321 79.3358 94.9769Z" fill="#DAD8CF"/>
<path fill-rule="evenodd" clip-rule="evenodd" d="M76.5024 374C73.6655 378.408 71.4758 381.808 69 385.642C71.2976 389.327 73.5811 392.997 76.0709 397C79.7142 393.788 81.4211 389.737 84 385.705C81.6837 382.093 79.3673 378.476 76.5024 374ZM79.6251 385.763C78.4435 387.345 77.5386 388.57 76.2913 390.229C75.1659 388.28 74.3783 386.93 73.553 385.502C74.5893 384.138 75.4379 383.023 76.5304 381.581C77.637 383.072 78.4717 384.21 79.6251 385.763Z" fill="#DAD8CF"/>
<path fill-rule="evenodd" clip-rule="evenodd" d="M328.49 230C327.527 231.03 327.167 231.345 326.895 231.723C320.139 240.877 320.203 241.833 328.172 251C331.225 248.417 332.918 244.883 334.855 241.551C335.15 241.029 334.961 239.943 334.601 239.366C332.724 236.325 330.713 233.368 328.49 230ZM328.158 236.787C329.247 238.178 330.141 239.315 331.193 240.659C330.183 242.032 329.33 243.205 328.14 244.827C327.033 243.048 326.258 241.805 325.493 240.567C326.401 239.278 327.111 238.275 328.158 236.787Z" fill="#DAD8CF"/>
</svg>
