<svg width="32" height="32" viewBox="0 0 32 32" fill="none" xmlns="http://www.w3.org/2000/svg">
<path d="M14.6666 8.66683H17.3333M13.9306 3.97883L6.59725 7.0655C5.01459 7.73216 4.22392 8.0655 3.77859 8.73616C3.33325 9.40683 3.33325 10.2642 3.33325 11.9815V28.6668H7.33325V15.3335C7.33325 14.0762 7.33325 13.4482 7.72392 13.0575C8.11459 12.6668 8.74259 12.6668 9.99992 12.6668H21.9999C23.2573 12.6668 23.8853 12.6668 24.2759 13.0575C24.6666 13.4482 24.6666 14.0762 24.6666 15.3335V28.6668H28.6666V11.9815C28.6666 10.2642 28.6666 9.4055 28.2213 8.73616C27.7759 8.06683 26.9853 7.73216 25.4026 7.0655L18.0693 3.97883C17.0493 3.54683 16.5386 3.3335 15.9999 3.3335C15.4613 3.3335 14.9506 3.54816 13.9306 3.97883Z" stroke="#EDEBE4" stroke-width="2" stroke-linecap="round" stroke-linejoin="round"/>
<path d="M17.3333 20.667H14.6667C13.4093 20.667 12.7813 20.667 12.3907 21.0577C12 21.4483 12 22.0763 12 23.3337V26.0003C12 27.2577 12 27.8857 12.3907 28.2763C12.7813 28.667 13.4093 28.667 14.6667 28.667H17.3333C18.5907 28.667 19.2187 28.667 19.6093 28.2763C20 27.8857 20 27.2577 20 26.0003V23.3337C20 22.0763 20 21.4483 19.6093 21.0577C19.2187 20.667 18.5907 20.667 17.3333 20.667Z" stroke="#EDEBE4" stroke-width="2" stroke-linecap="round" stroke-linejoin="round"/>
</svg>
