<svg width="32" height="32" viewBox="0 0 32 32" fill="none" xmlns="http://www.w3.org/2000/svg">
<path d="M6.10675 11.4764L2.66675 11.2724C5.13208 4.9391 12.2107 1.33377 19.1107 3.12577C26.4614 5.03643 30.8281 12.3498 28.8627 19.4591C27.2374 25.3404 21.7907 29.2418 15.7961 29.3338" stroke="#1C3F3A" stroke-width="2" stroke-linecap="round" stroke-linejoin="round"/>
<path d="M16.0001 29.3338C8.66675 29.3338 2.66675 22.6672 2.66675 14.6672M18.1387 12.9632C17.6694 12.4698 16.5214 11.3138 14.7054 12.1365C12.8907 12.9565 12.6027 15.5978 15.3481 15.8792C16.5881 16.0058 17.3974 15.7325 18.1387 16.5058C18.8801 17.2818 19.0174 19.4365 17.1241 20.0178C15.2307 20.5992 14.0027 19.6392 13.6734 19.3392M15.8774 10.6938V11.7472M15.8774 20.1965V21.3605" stroke="#1C3F3A" stroke-width="2" stroke-linecap="round" stroke-linejoin="round"/>
</svg>
