<svg width="40" height="40" viewBox="0 0 40 40" fill="none" xmlns="http://www.w3.org/2000/svg">
<path d="M28.3333 33.3333C30.1743 33.3333 31.6667 31.8409 31.6667 30C31.6667 28.159 30.1743 26.6666 28.3333 26.6666C26.4924 26.6666 25 28.159 25 30C25 31.8409 26.4924 33.3333 28.3333 33.3333Z" stroke="white" stroke-width="1.5" stroke-linecap="round" stroke-linejoin="round"/>
<path d="M11.6666 33.3333C13.5075 33.3333 14.9999 31.8409 14.9999 30C14.9999 28.159 13.5075 26.6666 11.6666 26.6666C9.82564 26.6666 8.33325 28.159 8.33325 30C8.33325 31.8409 9.82564 33.3333 11.6666 33.3333Z" stroke="white" stroke-width="1.5" stroke-linecap="round" stroke-linejoin="round"/>
<path d="M18.3333 28.3333H24.9999M22.4999 11.6666H24.0716C26.2549 11.6666 27.3483 11.6666 28.2733 12.1916C29.1999 12.715 29.8166 13.6833 31.0516 15.6183C31.9183 16.975 32.8249 17.9616 34.1033 18.8366C35.3899 19.72 36.0033 20.1516 36.3416 20.8433C36.6666 21.5066 36.6666 22.2916 36.6666 23.8616C36.6666 25.9333 36.6666 26.9683 36.0849 27.6266L36.0082 27.7083C35.3966 28.3333 34.4316 28.3333 32.5049 28.3333H31.6666" stroke="white" stroke-width="1.5" stroke-linecap="round" stroke-linejoin="round"/>
<path d="M21.6666 11.6666L23.3233 15.81C24.1349 17.8383 24.5399 18.8533 25.3883 19.4266C26.2349 20 27.3266 20 29.5133 20H34.9999M21.6666 11.6666C21.6666 9.30829 21.6666 8.12996 20.9666 7.39996C20.2666 6.66663 19.1383 6.66663 16.8833 6.66663H8.11659C5.86159 6.66663 4.73325 6.66829 4.03325 7.39996C3.33325 8.13163 3.33325 9.30996 3.33325 11.6666V23.3333C3.33325 25.6916 3.33325 26.87 4.03325 27.6C4.73325 28.3333 5.86159 28.3333 8.11659 28.3333M21.6666 11.6666V28.3333H14.4933" stroke="white" stroke-width="1.5" stroke-linecap="round" stroke-linejoin="round"/>
</svg>
