<svg width="30" height="30" viewBox="0 0 30 30" fill="none" xmlns="http://www.w3.org/2000/svg">
<path d="M26.6476 8.92629L26.0301 7.85629C25.5638 7.04629 25.3301 6.64129 24.9326 6.48004C24.5363 6.31754 24.0876 6.44629 23.1888 6.70004L21.6638 7.13004C21.0901 7.26254 20.4888 7.18754 19.9663 6.91754L19.5451 6.67504C19.0963 6.38744 18.7512 5.96391 18.5601 5.46629L18.1426 4.21879C17.8676 3.39379 17.7301 2.98129 17.4038 2.74629C17.0776 2.50879 16.6426 2.50879 15.7751 2.50879H14.3813C13.5138 2.50879 13.0801 2.50879 12.7526 2.74629C12.4263 2.98129 12.2901 3.39379 12.0151 4.21879L11.5976 5.46629C11.4062 5.96409 11.0606 6.38764 10.6113 6.67504L10.1901 6.91879C9.6676 7.18754 9.0651 7.26254 8.4926 7.13129L6.9676 6.70004C6.06885 6.44629 5.6201 6.31879 5.22385 6.48004C4.82635 6.64129 4.5926 7.04629 4.12635 7.85504L3.5101 8.92629C3.0726 9.68629 2.85385 10.065 2.89635 10.4688C2.93885 10.8738 3.23135 11.1988 3.81635 11.85L5.1051 13.2913C5.4201 13.69 5.64385 14.385 5.64385 15.01C5.64385 15.635 5.4201 16.33 5.10635 16.7288L3.81635 18.1688C3.23135 18.82 2.93885 19.1463 2.89635 19.55C2.85385 19.9538 3.07135 20.3338 3.50885 21.0925L4.12635 22.1638C4.5926 22.9725 4.82635 23.3775 5.22385 23.5388C5.62135 23.7 6.06885 23.5738 6.9676 23.3188L8.4926 22.8888C9.06621 22.7575 9.66775 22.8327 10.1913 23.1013L10.6113 23.3438C11.0613 23.6313 11.4063 24.0563 11.5963 24.5538L12.0138 25.8C12.2888 26.625 12.4263 27.0375 12.7526 27.275C13.0801 27.51 13.5138 27.51 14.3813 27.51H15.7751C16.6426 27.51 17.0776 27.51 17.4038 27.2738C17.7301 27.0375 17.8676 26.625 18.1413 25.8L18.5601 24.5538C18.7501 24.055 19.0951 23.6313 19.5451 23.3438L19.9651 23.1013C20.4901 22.8325 21.0901 22.7563 21.6651 22.8888L23.1901 23.3188C24.0876 23.5738 24.5363 23.7013 24.9326 23.54C25.3301 23.3775 25.5638 22.9725 26.0301 22.1638L26.6463 21.0925C27.0838 20.3338 27.3026 19.955 27.2601 19.55C27.2176 19.145 26.9251 18.82 26.3401 18.1688L25.0513 16.7288C24.7363 16.3288 24.5126 15.635 24.5126 15.01C24.5126 14.385 24.7363 13.69 25.0501 13.2913L26.3401 11.85C26.9251 11.2 27.2176 10.8738 27.2601 10.4688C27.3026 10.0638 27.0851 9.68629 26.6476 8.92629Z" stroke="#1C3F3A" stroke-width="2" stroke-linecap="round" stroke-linejoin="round"/>
<path d="M10.625 20C11.0684 19.2321 11.7061 18.5944 12.4741 18.1512C13.2421 17.7079 14.1133 17.4747 15 17.475C16.87 17.475 18.5012 18.49 19.375 20M17.5 11.875C17.5 12.538 17.2366 13.1739 16.7678 13.6428C16.2989 14.1116 15.663 14.375 15 14.375C14.337 14.375 13.7011 14.1116 13.2322 13.6428C12.7634 13.1739 12.5 12.538 12.5 11.875C12.5 11.212 12.7634 10.5761 13.2322 10.1072C13.7011 9.63839 14.337 9.375 15 9.375C15.663 9.375 16.2989 9.63839 16.7678 10.1072C17.2366 10.5761 17.5 11.212 17.5 11.875Z" stroke="#1C3F3A" stroke-width="2" stroke-linecap="round" stroke-linejoin="round"/>
</svg>
