<svg width="37" height="37" viewBox="0 0 37 37" fill="none" xmlns="http://www.w3.org/2000/svg">
<path d="M9.24984 29.2917V15.4167C9.24984 12.9635 10.2244 10.6107 11.9591 8.87601C13.6938 7.1413 16.0466 6.16675 18.4998 6.16675C20.9531 6.16675 23.3059 7.1413 25.0406 8.87601C26.7753 10.6107 27.7498 12.9635 27.7498 15.4167V29.2917M9.24984 29.2917H27.7498M9.24984 29.2917H6.1665M27.7498 29.2917H30.8332M16.9582 33.9167H20.0415" stroke="#1C3F3A" stroke-width="2" stroke-linecap="round" stroke-linejoin="round"/>
<path d="M18.4997 6.16671C19.3511 6.16671 20.0413 5.47648 20.0413 4.62504C20.0413 3.7736 19.3511 3.08337 18.4997 3.08337C17.6482 3.08337 16.958 3.7736 16.958 4.62504C16.958 5.47648 17.6482 6.16671 18.4997 6.16671Z" stroke="#1C3F3A" stroke-width="2"/>
</svg>
