<svg width="38" height="38" viewBox="0 0 38 38" fill="none" xmlns="http://www.w3.org/2000/svg">
<path d="M4.75 19C4.75 21.8184 5.58575 24.5735 7.15156 26.9169C8.71737 29.2603 10.9429 31.0867 13.5468 32.1653C16.1506 33.2438 19.0158 33.526 21.78 32.9762C24.5443 32.4264 27.0834 31.0692 29.0763 29.0763C31.0692 27.0834 32.4264 24.5443 32.9762 21.78C33.526 19.0158 33.2438 16.1506 32.1653 13.5468C31.0867 10.9429 29.2603 8.71737 26.9169 7.15156C24.5735 5.58575 21.8184 4.75 19 4.75C15.0163 4.76499 11.1925 6.31944 8.32833 9.08833L4.75 12.6667" stroke="white" stroke-width="2" stroke-linecap="round" stroke-linejoin="round"/>
<path d="M4.75 4.75V12.6667H12.6667M19 11.0833V19L25.3333 22.1667" stroke="white" stroke-width="2" stroke-linecap="round" stroke-linejoin="round"/>
</svg>
