<svg width="37" height="37" viewBox="0 0 37 37" fill="none" xmlns="http://www.w3.org/2000/svg">
<path d="M18.5 26.2083V26.2237M4.625 18.5C4.625 20.3221 4.98389 22.1263 5.68117 23.8097C6.37846 25.4931 7.40048 27.0227 8.68889 28.3111C9.97731 29.5995 11.5069 30.6215 13.1903 31.3188C14.8737 32.0161 16.6779 32.375 18.5 32.375C20.3221 32.375 22.1263 32.0161 23.8097 31.3188C25.4931 30.6215 27.0227 29.5995 28.3111 28.3111C29.5995 27.0227 30.6215 25.4931 31.3188 23.8097C32.0161 22.1263 32.375 20.3221 32.375 18.5C32.375 16.6779 32.0161 14.8737 31.3188 13.1903C30.6215 11.5069 29.5995 9.97731 28.3111 8.68889C27.0227 7.40048 25.4931 6.37846 23.8097 5.68117C22.1263 4.98389 20.3221 4.625 18.5 4.625C16.6779 4.625 14.8737 4.98389 13.1903 5.68117C11.5069 6.37846 9.97731 7.40048 8.68889 8.68889C7.40048 9.97731 6.37846 11.5069 5.68117 13.1903C4.98389 14.8737 4.625 16.6779 4.625 18.5Z" stroke="white" stroke-width="2" stroke-linecap="round" stroke-linejoin="round"/>
<path d="M18.4998 20.8126C18.4715 20.3121 18.6065 19.8159 18.8845 19.3989C19.1626 18.9818 19.5686 18.6663 20.0415 18.5001C20.621 18.2785 21.1411 17.9254 21.5609 17.4686C21.9808 17.0118 22.2888 16.4639 22.4609 15.8678C22.6329 15.2717 22.6643 14.6439 22.5525 14.0336C22.4406 13.4234 22.1887 12.8475 21.8164 12.3511C21.4442 11.8548 20.9618 11.4517 20.4073 11.1735C19.8528 10.8952 19.2413 10.7495 18.6209 10.7478C18.0005 10.7461 17.3882 10.8884 16.8321 11.1635C16.2761 11.4387 15.7915 11.8391 15.4165 12.3334" stroke="white" stroke-width="2" stroke-linecap="round" stroke-linejoin="round"/>
</svg>
